<?xml version="1.0" encoding="UTF-8"?>
<svg id="Layer_1" data-name="Layer 1" xmlns="http://www.w3.org/2000/svg" viewBox="0 0 195.46 195.46">
  <defs>
    <style>
      .cls-1 {
        fill: #231f20;
        stroke: #231f20;
        stroke-miterlimit: 10;
      }
    </style>
  </defs>
  <path class="cls-1" d="M194.96,97.73c0,53.7-43.53,97.23-97.23,97.23S.5,151.43.5,97.73,44.03.5,97.73.5c30.99,0,58.59,14.5,76.39,37.08,5.91,7.49,10.74,15.88,14.25,24.92l-6.84-.08c-3.05-7.23-7.01-13.98-11.73-20.11C153.18,20.73,127.08,6.82,97.73,6.82,47.52,6.82,6.82,47.52,6.82,97.73s40.7,90.91,90.91,90.91,90.91-40.7,90.91-90.91h6.32Z"/>
  <polygon class="cls-1" points="193.96 15.85 193.96 62.57 188.37 62.5 181.53 62.42 151.77 62.05 169.8 42.31 174.12 37.58 193.96 15.85"/>
</svg>